<svg width="794" height="325" viewBox="0 0 794 325" fill="none" xmlns="http://www.w3.org/2000/svg">
<rect width="794" height="325" rx="30" fill="#181818"/>
<mask id="mask0_5_4537" style="mask-type:alpha" maskUnits="userSpaceOnUse" x="0" y="0" width="794" height="325">
<rect width="794" height="325" rx="30" fill="#181818"/>
</mask>
<g mask="url(#mask0_5_4537)">
<g opacity="0.51">
<path d="M780.226 4.72577C780.192 3.21276 780.157 1.69392 780.122 0.180914C780.112 -0.251373 779.733 -0.613817 779.301 -0.603906C777.788 -0.569216 776.269 -0.534393 774.756 -0.499704C774.324 -0.489793 773.961 -0.110339 773.971 0.321948C774.006 1.83495 774.04 3.3538 774.075 4.8668C774.085 5.29909 774.464 5.66153 774.897 5.65162C776.41 5.61693 777.929 5.58211 779.442 5.54742C779.675 5.54206 779.854 5.45029 779.98 5.31882C779.989 5.30986 779.994 5.30388 780.003 5.29491C780.009 5.28894 780.017 5.27997 780.023 5.274C780.151 5.14539 780.232 4.96528 780.226 4.72577ZM775.663 4.02966C775.641 3.04825 775.618 2.07268 775.596 1.09127C776.577 1.06877 777.553 1.04641 778.534 1.02391C778.557 2.00531 778.579 2.98088 778.602 3.96229C777.623 3.9818 776.645 4.00716 775.663 4.02966Z" fill="url(#paint0_linear_5_4537)"/>
<path d="M757.508 5.24727C757.473 3.73426 757.438 2.21542 757.404 0.702415C757.394 0.270129 757.014 -0.0923153 756.582 -0.082404C755.069 -0.0477145 753.55 -0.0128907 752.037 0.0217986C751.605 0.0317101 751.242 0.411164 751.252 0.843451C751.287 2.35645 751.322 3.8753 751.356 5.3883C751.366 5.82059 751.746 6.18303 752.178 6.17312C753.691 6.13843 755.21 6.10361 756.723 6.06892C756.957 6.06356 757.136 5.97179 757.261 5.84032C757.27 5.83136 757.275 5.82538 757.284 5.81642C757.29 5.81044 757.298 5.80147 757.304 5.7955C757.433 5.66689 757.513 5.48678 757.508 5.24727ZM752.945 4.55114C752.922 3.56973 752.9 2.59419 752.877 1.61278C753.859 1.59028 754.834 1.56789 755.816 1.54539C755.838 2.5268 755.86 3.50238 755.883 4.48379C754.904 4.5033 753.926 4.52864 752.945 4.55114Z" fill="url(#paint1_linear_5_4537)"/>
<path d="M734.791 5.76875C734.756 4.25575 734.721 2.7369 734.687 1.2239C734.677 0.791613 734.297 0.429169 733.865 0.43908C732.352 0.47377 730.833 0.508594 729.32 0.543283C728.888 0.553194 728.526 0.932648 728.535 1.36494C728.57 2.87794 728.605 4.39678 728.64 5.90979C728.65 6.34207 729.029 6.70452 729.461 6.69461C730.974 6.65992 732.493 6.62509 734.006 6.5904C734.24 6.58505 734.419 6.49327 734.544 6.36181C734.553 6.35284 734.559 6.34686 734.567 6.3379C734.573 6.33192 734.582 6.32296 734.587 6.31698C734.713 6.19136 734.796 6.00826 734.791 5.76875ZM730.228 5.07264C730.205 4.09124 730.183 3.11567 730.16 2.13426C731.142 2.11176 732.117 2.08939 733.099 2.06689C733.121 3.0483 733.144 4.02387 733.166 5.00527C732.188 5.02479 731.209 5.05014 730.228 5.07264Z" fill="url(#paint2_linear_5_4537)"/>
<path d="M758.03 27.966C757.996 26.453 757.961 24.9342 757.926 23.4211C757.916 22.9889 757.537 22.6264 757.104 22.6363C755.591 22.671 754.073 22.7059 752.56 22.7405C752.127 22.7505 751.765 23.1299 751.775 23.5622C751.809 25.0752 751.844 26.594 751.879 28.107C751.889 28.5393 752.268 28.9018 752.7 28.8919C754.214 28.8572 755.732 28.8224 757.245 28.7877C757.479 28.7823 757.658 28.6905 757.784 28.5591C757.792 28.5501 757.798 28.5441 757.807 28.5352C757.812 28.5292 757.821 28.5202 757.826 28.5142C757.952 28.3886 758.036 28.2055 758.03 27.966ZM753.467 27.2699C753.444 26.2885 753.422 25.3129 753.4 24.3315C754.381 24.309 755.357 24.2866 756.338 24.2641C756.361 25.2455 756.383 26.2211 756.405 27.2025C755.427 27.2221 754.448 27.2474 753.467 27.2699Z" fill="url(#paint3_linear_5_4537)"/>
<path d="M712.072 6.28828C712.038 4.77528 712.003 3.25643 711.968 1.74343C711.958 1.31114 711.579 0.9487 711.146 0.958611C709.633 0.993301 708.115 1.02811 706.602 1.0628C706.169 1.07271 705.807 1.45216 705.817 1.88445C705.851 3.39745 705.886 4.91631 705.921 6.42932C705.931 6.8616 706.31 7.22405 706.743 7.21414C708.256 7.17945 709.774 7.14462 711.287 7.10993C711.521 7.10458 711.7 7.0128 711.826 6.88134C711.834 6.87237 711.84 6.86641 711.849 6.85745C711.854 6.85147 711.863 6.84251 711.868 6.83653C711.994 6.71091 712.078 6.52779 712.072 6.28828ZM707.509 5.59217C707.487 4.61077 707.464 3.63518 707.442 2.65377C708.423 2.63127 709.399 2.60892 710.38 2.58642C710.403 3.56783 710.425 4.54338 710.447 5.52479C709.466 5.54729 708.49 5.56967 707.509 5.59217Z" fill="url(#paint4_linear_5_4537)"/>
<path d="M735.31 28.4855C735.276 26.9725 735.241 25.4537 735.206 23.9407C735.196 23.5084 734.817 23.146 734.385 23.1559C732.872 23.1906 731.353 23.2254 729.84 23.2601C729.408 23.27 729.045 23.6494 729.055 24.0817C729.09 25.5947 729.124 27.1136 729.159 28.6266C729.169 29.0589 729.549 29.4213 729.981 29.4114C731.494 29.3767 733.013 29.3419 734.526 29.3072C734.759 29.3018 734.938 29.2101 735.064 29.0786C735.073 29.0696 735.078 29.0637 735.087 29.0547C735.092 29.0487 735.101 29.0398 735.107 29.0338C735.232 28.9082 735.316 28.725 735.31 28.4855ZM730.747 27.7894C730.725 26.808 730.702 25.8324 730.68 24.851C731.661 24.8285 732.637 24.8062 733.618 24.7837C733.641 25.7651 733.663 26.7406 733.686 27.7221C732.704 27.7446 731.729 27.7669 730.747 27.7894Z" fill="url(#paint5_linear_5_4537)"/>
<path d="M689.355 6.80975C689.321 5.29675 689.286 3.7779 689.251 2.2649C689.241 1.83261 688.862 1.47017 688.43 1.48008C686.917 1.51477 685.398 1.54959 683.885 1.58428C683.452 1.59419 683.09 1.97365 683.1 2.40593C683.135 3.91894 683.169 5.43778 683.204 6.95079C683.214 7.38307 683.593 7.74552 684.026 7.7356C685.539 7.70092 687.058 7.66609 688.571 7.6314C688.804 7.62604 688.983 7.53427 689.109 7.40281C689.117 7.39384 689.123 7.38786 689.132 7.3789C689.137 7.37292 689.146 7.36396 689.152 7.35798C689.277 7.23236 689.361 7.04926 689.355 6.80975ZM684.792 6.11364C684.77 5.13223 684.747 4.15667 684.725 3.17526C685.706 3.15276 686.682 3.13039 687.663 3.10789C687.686 4.0893 687.708 5.06486 687.731 6.04627C686.749 6.06877 685.774 6.09114 684.792 6.11364Z" fill="url(#paint6_linear_5_4537)"/>
<path d="M712.594 29.009C712.559 27.496 712.524 25.9771 712.49 24.4641C712.48 24.0318 712.1 23.6694 711.668 23.6793C710.155 23.714 708.636 23.7488 707.123 23.7835C706.691 23.7934 706.328 24.1729 706.338 24.6052C706.373 26.1182 706.408 27.637 706.442 29.15C706.452 29.5823 706.832 29.9448 707.264 29.9348C708.777 29.9002 710.296 29.8653 711.809 29.8306C712.043 29.8253 712.222 29.7335 712.347 29.602C712.356 29.5931 712.361 29.5871 712.37 29.5781C712.376 29.5721 712.384 29.5632 712.39 29.5572C712.516 29.4316 712.599 29.2485 712.594 29.009ZM708.03 28.3129C708.008 27.3315 707.986 26.3559 707.963 25.3745C708.945 25.352 709.92 25.3296 710.902 25.3071C710.924 26.2885 710.946 27.2641 710.969 28.2455C709.987 28.268 709.012 28.2904 708.03 28.3129Z" fill="url(#paint7_linear_5_4537)"/>
<path d="M735.832 51.2043C735.797 49.6913 735.762 48.1724 735.728 46.6594C735.718 46.2271 735.338 45.8647 734.906 45.8746C733.393 45.9093 731.874 45.9441 730.361 45.9788C729.929 45.9887 729.567 46.3682 729.576 46.8005C729.611 48.3135 729.646 49.8323 729.681 51.3453C729.691 51.7776 730.07 52.14 730.502 52.1301C732.015 52.0954 733.534 52.0606 735.047 52.0259C735.281 52.0206 735.46 51.9288 735.585 51.7973C735.594 51.7884 735.6 51.7824 735.608 51.7734C735.614 51.7675 735.623 51.7585 735.628 51.7525C735.754 51.6269 735.837 51.4438 735.832 51.2043ZM731.269 50.5082C731.246 49.5268 731.224 48.5512 731.201 47.5698C732.183 47.5473 733.158 47.5249 734.14 47.5024C734.162 48.4838 734.185 49.4594 734.207 50.4408C733.226 50.4633 732.25 50.4857 731.269 50.5082Z" fill="url(#paint8_linear_5_4537)"/>
<path d="M666.633 7.33516C666.598 5.82216 666.563 4.30329 666.529 2.79029C666.519 2.358 666.139 1.99556 665.707 2.00547C664.194 2.04016 662.675 2.075 661.162 2.10969C660.73 2.1196 660.367 2.49905 660.377 2.93134C660.412 4.44435 660.447 5.96317 660.481 7.47618C660.491 7.90846 660.871 8.27091 661.303 8.261C662.816 8.22631 664.335 8.1915 665.848 8.15681C666.082 8.15145 666.261 8.05968 666.386 7.92821C666.395 7.91925 666.4 7.91327 666.409 7.90431C666.415 7.89833 666.423 7.88937 666.429 7.88339C666.558 7.75478 666.641 7.57168 666.633 7.33516ZM662.072 6.63604C662.05 5.65463 662.028 4.67909 662.005 3.69768C662.986 3.67518 663.962 3.65279 664.943 3.63029C664.966 4.6117 664.988 5.58728 665.011 6.56869C664.029 6.59119 663.054 6.61354 662.072 6.63604Z" fill="url(#paint9_linear_5_4537)"/>
<path d="M689.871 29.5305C689.836 28.0175 689.802 26.4986 689.767 24.9856C689.757 24.5533 689.378 24.1909 688.945 24.2008C687.432 24.2355 685.913 24.2703 684.4 24.305C683.968 24.3149 683.606 24.6944 683.616 25.1267C683.65 26.6397 683.685 28.1585 683.72 29.6715C683.73 30.1038 684.109 30.4662 684.541 30.4563C686.054 30.4216 687.573 30.3868 689.086 30.3521C689.32 30.3468 689.499 30.255 689.625 30.1235C689.633 30.1146 689.639 30.1086 689.647 30.0996C689.653 30.0937 689.662 30.0847 689.667 30.0787C689.796 29.9501 689.879 29.767 689.871 29.5305ZM685.311 28.8314C685.288 27.85 685.266 26.8744 685.243 25.893C686.225 25.8705 687.2 25.8481 688.182 25.8256C688.204 26.807 688.227 27.7826 688.249 28.764C687.268 28.7865 686.292 28.8089 685.311 28.8314Z" fill="url(#paint10_linear_5_4537)"/>
<path d="M713.109 51.7277C713.075 50.2147 713.04 48.6959 713.005 47.1829C712.995 46.7506 712.616 46.3882 712.184 46.3981C710.67 46.4328 709.152 46.4676 707.639 46.5023C707.206 46.5122 706.844 46.8916 706.854 47.3239C706.888 48.8369 706.923 50.3558 706.958 51.8688C706.968 52.3011 707.347 52.6635 707.78 52.6536C709.293 52.6189 710.811 52.5841 712.324 52.5494C712.558 52.544 712.737 52.4523 712.863 52.3208C712.871 52.3118 712.877 52.3058 712.886 52.2969C712.891 52.2909 712.9 52.2819 712.906 52.276C713.034 52.1474 713.118 51.9643 713.109 51.7277ZM708.549 51.0286C708.526 50.0472 708.504 49.0717 708.482 48.0903C709.463 48.0678 710.439 48.0454 711.42 48.0229C711.442 49.0043 711.465 49.9799 711.487 50.9613C710.506 50.9838 709.53 51.0061 708.549 51.0286Z" fill="url(#paint11_linear_5_4537)"/>
<path d="M643.914 7.85469C643.879 6.34169 643.845 4.82284 643.81 3.30984C643.8 2.87755 643.42 2.51511 642.988 2.52502C641.475 2.55971 639.956 2.59453 638.443 2.62922C638.011 2.63913 637.649 3.01859 637.658 3.45087C637.693 4.96388 637.728 6.48272 637.763 7.99572C637.773 8.42801 638.152 8.79046 638.584 8.78054C640.097 8.74585 641.616 8.71103 643.129 8.67634C643.363 8.67098 643.542 8.57919 643.667 8.44773C643.676 8.43876 643.682 8.4328 643.69 8.42384C643.696 8.41786 643.705 8.4089 643.71 8.40292C643.839 8.27431 643.922 8.09121 643.914 7.85469ZM639.354 7.15559C639.331 6.17418 639.309 5.19862 639.286 4.21721C640.268 4.19471 641.243 4.17234 642.225 4.14984C642.247 5.13125 642.27 6.10681 642.292 7.08822C641.311 7.11072 640.332 7.13023 639.354 7.15559Z" fill="url(#paint12_linear_5_4537)"/>
<path d="M667.154 30.0539C667.12 28.5409 667.085 27.022 667.05 25.509C667.04 25.0768 666.661 24.7143 666.228 24.7242C664.715 24.7589 663.197 24.7937 661.684 24.8284C661.251 24.8384 660.889 25.2178 660.899 25.6501C660.933 27.1631 660.968 28.6819 661.003 30.1949C661.013 30.6272 661.392 30.9897 661.825 30.9797C663.338 30.9451 664.856 30.9103 666.369 30.8756C666.603 30.8702 666.782 30.7784 666.908 30.6469C666.916 30.638 666.922 30.632 666.931 30.6231C666.936 30.6171 666.945 30.6081 666.951 30.6021C667.079 30.4735 667.163 30.2904 667.154 30.0539ZM662.594 29.3548C662.571 28.3734 662.549 27.3978 662.527 26.4164C663.508 26.3939 664.484 26.3715 665.465 26.349C665.487 27.3304 665.51 28.306 665.532 29.2874C664.551 29.3099 663.575 29.3323 662.594 29.3548Z" fill="url(#paint13_linear_5_4537)"/>
<path d="M690.392 52.2512C690.358 50.7382 690.323 49.2193 690.288 47.7063C690.278 47.274 689.899 46.9116 689.467 46.9215C687.954 46.9562 686.435 46.991 684.922 47.0257C684.49 47.0356 684.127 47.4151 684.137 47.8474C684.172 49.3604 684.207 50.8792 684.241 52.3922C684.251 52.8245 684.631 53.1869 685.063 53.177C686.576 53.1423 688.095 53.1075 689.608 53.0728C689.841 53.0675 690.02 52.9757 690.146 52.8442C690.155 52.8352 690.16 52.8293 690.169 52.8203C690.175 52.8143 690.183 52.8054 690.189 52.7994C690.317 52.6708 690.401 52.4877 690.392 52.2512ZM685.832 51.5521C685.81 50.5707 685.787 49.5951 685.765 48.6137C686.746 48.5912 687.722 48.5688 688.703 48.5463C688.726 49.5277 688.748 50.5033 688.771 51.4847C687.789 51.5072 686.814 51.5296 685.832 51.5521Z" fill="url(#paint14_linear_5_4537)"/>
<path d="M713.631 74.4465C713.596 72.9335 713.561 71.4146 713.527 69.9016C713.517 69.4693 713.137 69.1069 712.705 69.1168C711.192 69.1515 709.673 69.1863 708.16 69.221C707.728 69.2309 707.365 69.6104 707.375 70.0427C707.41 71.5557 707.445 73.0745 707.479 74.5875C707.489 75.0198 707.869 75.3822 708.301 75.3723C709.814 75.3376 711.333 75.3028 712.846 75.2681C713.08 75.2628 713.259 75.171 713.384 75.0395C713.393 75.0306 713.399 75.0246 713.407 75.0156C713.413 75.0097 713.421 75.0007 713.427 74.9947C713.556 74.8661 713.639 74.683 713.631 74.4465ZM709.07 73.7474C709.048 72.766 709.026 71.7904 709.003 70.809C709.984 70.7865 710.96 70.7641 711.941 70.7416C711.964 71.723 711.986 72.6986 712.009 73.68C711.027 73.7025 710.052 73.7249 709.07 73.7474Z" fill="url(#paint15_linear_5_4537)"/>
<path d="M621.197 8.37616C621.163 6.86315 621.128 5.34432 621.093 3.83132C621.083 3.39903 620.704 3.03659 620.271 3.0465C618.758 3.08119 617.24 3.116 615.727 3.15069C615.294 3.1606 614.932 3.54005 614.942 3.97234C614.976 5.48534 615.011 7.0042 615.046 8.51721C615.056 8.9495 615.435 9.31194 615.868 9.30203C617.381 9.26734 618.899 9.2325 620.412 9.19781C620.646 9.19245 620.825 9.10069 620.951 8.96923C620.959 8.96026 620.965 8.95428 620.974 8.94532C620.979 8.93934 620.988 8.9304 620.993 8.92442C621.122 8.79581 621.206 8.61268 621.197 8.37616ZM616.637 7.67707C616.614 6.69567 616.592 5.72008 616.57 4.73867C617.551 4.71617 618.526 4.69382 619.508 4.67132C619.53 5.65273 619.553 6.62828 619.575 7.60969C618.594 7.63219 617.615 7.65172 616.637 7.67707Z" fill="url(#paint16_linear_5_4537)"/>
<path d="M644.435 30.5734C644.401 29.0604 644.366 27.5416 644.331 26.0286C644.321 25.5963 643.942 25.2338 643.51 25.2438C641.997 25.2784 640.478 25.3133 638.965 25.348C638.533 25.3579 638.17 25.7373 638.18 26.1696C638.215 27.6826 638.249 29.2015 638.284 30.7145C638.294 31.1467 638.673 31.5092 639.106 31.4993C640.619 31.4646 642.138 31.4298 643.651 31.3951C643.884 31.3897 644.063 31.2979 644.189 31.1665C644.198 31.1575 644.203 31.1515 644.212 31.1426C644.218 31.1366 644.226 31.1276 644.232 31.1217C644.36 30.9931 644.444 30.8099 644.435 30.5734ZM639.875 29.8743C639.853 28.8929 639.83 27.9173 639.808 26.9359C640.789 26.9134 641.765 26.8911 642.746 26.8686C642.769 27.85 642.791 28.8255 642.814 29.807C641.832 29.8295 640.857 29.8518 639.875 29.8743Z" fill="url(#paint17_linear_5_4537)"/>
<path d="M667.674 52.7707C667.639 51.2577 667.604 49.7389 667.57 48.2259C667.56 47.7936 667.18 47.4311 666.748 47.441C665.235 47.4757 663.716 47.5105 662.203 47.5452C661.771 47.5551 661.408 47.9346 661.418 48.3669C661.453 49.8799 661.488 51.3987 661.522 52.9117C661.532 53.344 661.912 53.7065 662.344 53.6966C663.857 53.6619 665.376 53.627 666.889 53.5924C667.123 53.587 667.302 53.4952 667.427 53.3638C667.436 53.3548 667.442 53.3488 667.45 53.3399C667.456 53.3339 667.464 53.3249 667.47 53.319C667.599 53.1903 667.682 53.0072 667.674 52.7707ZM663.113 52.0716C663.091 51.0902 663.069 50.1146 663.046 49.1332C664.027 49.1107 665.003 49.0884 665.984 49.0659C666.007 50.0473 666.029 51.0228 666.052 52.0042C665.07 52.0267 664.095 52.0491 663.113 52.0716Z" fill="url(#paint18_linear_5_4537)"/>
<path d="M690.913 74.968C690.878 73.4549 690.844 71.9361 690.809 70.4231C690.799 69.9908 690.42 69.6284 689.987 69.6383C688.474 69.673 686.955 69.7078 685.442 69.7425C685.01 69.7524 684.648 70.1318 684.658 70.5641C684.692 72.0771 684.727 73.596 684.762 75.109C684.772 75.5413 685.151 75.9037 685.583 75.8938C687.096 75.8591 688.615 75.8243 690.128 75.7896C690.362 75.7842 690.541 75.6925 690.667 75.561C690.675 75.552 690.681 75.5461 690.689 75.5371C690.695 75.5311 690.704 75.5222 690.709 75.5162C690.838 75.3876 690.921 75.2045 690.913 74.968ZM686.353 74.2689C686.33 73.2874 686.308 72.3119 686.285 71.3305C687.267 71.308 688.242 71.2856 689.224 71.2631C689.246 72.2445 689.269 73.2201 689.291 74.2015C688.31 74.224 687.334 74.2464 686.353 74.2689Z" fill="url(#paint19_linear_5_4537)"/>
<path d="M598.478 8.89764C598.444 7.38464 598.409 5.86579 598.374 4.35279C598.364 3.9205 597.985 3.55806 597.553 3.56797C596.04 3.60266 594.521 3.63748 593.008 3.67217C592.576 3.68208 592.213 4.06154 592.223 4.49382C592.258 6.00683 592.292 7.52567 592.327 9.03868C592.337 9.47096 592.716 9.83341 593.149 9.8235C594.662 9.78881 596.181 9.75398 597.694 9.71929C597.927 9.71394 598.106 9.62216 598.232 9.4907C598.24 9.48173 598.246 9.47575 598.255 9.46679C598.26 9.46081 598.269 9.45185 598.275 9.44587C598.403 9.31726 598.487 9.13416 598.478 8.89764ZM593.918 8.19854C593.896 7.21713 593.873 6.24157 593.851 5.26016C594.832 5.23766 595.808 5.21529 596.789 5.19279C596.812 6.1742 596.834 7.14976 596.856 8.13117C595.875 8.15367 594.897 8.17319 593.918 8.19854Z" fill="url(#paint20_linear_5_4537)"/>
<path d="M621.719 31.0949C621.684 29.5819 621.649 28.0631 621.615 26.5501C621.605 26.1178 621.225 25.7553 620.793 25.7653C619.28 25.7999 617.761 25.8347 616.248 25.8694C615.816 25.8793 615.453 26.2588 615.463 26.6911C615.498 28.2041 615.533 29.723 615.567 31.236C615.577 31.6682 615.957 32.0307 616.389 32.0208C617.902 31.9861 619.421 31.9512 620.934 31.9166C621.168 31.9112 621.347 31.8194 621.472 31.688C621.481 31.679 621.486 31.673 621.495 31.6641C621.501 31.6581 621.509 31.6491 621.515 31.6431C621.644 31.5145 621.727 31.3314 621.719 31.0949ZM617.158 30.3958C617.136 29.4144 617.113 28.4388 617.091 27.4574C618.072 27.4349 619.048 27.4126 620.029 27.3901C620.052 28.3715 620.074 29.347 620.097 30.3284C619.115 30.3509 618.137 30.3705 617.158 30.3958Z" fill="url(#paint21_linear_5_4537)"/>
<path d="M644.955 53.2922C644.92 51.7792 644.886 50.2603 644.851 48.7473C644.841 48.315 644.461 47.9526 644.029 47.9625C642.516 47.9972 640.997 48.032 639.484 48.0667C639.052 48.0766 638.69 48.4561 638.7 48.8884C638.734 50.4014 638.769 51.9202 638.804 53.4332C638.814 53.8655 639.193 54.2279 639.625 54.218C641.138 54.1833 642.657 54.1485 644.17 54.1138C644.404 54.1085 644.583 54.0167 644.708 53.8852C644.717 53.8763 644.723 53.8703 644.731 53.8613C644.737 53.8553 644.746 53.8464 644.751 53.8404C644.88 53.7118 644.963 53.5287 644.955 53.2922ZM640.395 52.5931C640.372 51.6117 640.35 50.6361 640.327 49.6547C641.309 49.6322 642.284 49.6098 643.266 49.5873C643.288 50.5687 643.311 51.5443 643.333 52.5257C642.352 52.5482 641.376 52.5706 640.395 52.5931Z" fill="url(#paint22_linear_5_4537)"/>
<path d="M668.195 75.4894C668.161 73.9764 668.126 72.4576 668.091 70.9446C668.081 70.5123 667.702 70.1499 667.269 70.1598C665.756 70.1945 664.238 70.2293 662.725 70.264C662.292 70.2739 661.93 70.6533 661.94 71.0856C661.974 72.5986 662.009 74.1175 662.044 75.6305C662.054 76.0628 662.433 76.4252 662.866 76.4153C664.379 76.3806 665.897 76.3458 667.41 76.3111C667.644 76.3057 667.823 76.214 667.949 76.0825C667.957 76.0735 667.963 76.0675 667.972 76.0586C667.977 76.0526 667.986 76.0436 667.992 76.0377C668.12 75.9091 668.204 75.726 668.195 75.4894ZM663.635 74.7904C663.612 73.8089 663.59 72.8334 663.568 71.852C664.549 71.8295 665.525 71.8071 666.506 71.7846C666.528 72.766 666.551 73.7416 666.573 74.723C665.592 74.7455 664.616 74.7679 663.635 74.7904Z" fill="url(#paint23_linear_5_4537)"/>
<path d="M691.434 97.6867C691.399 96.1737 691.364 94.6549 691.329 93.1419C691.319 92.7096 690.94 92.3471 690.508 92.357C688.995 92.3917 687.476 92.4265 685.963 92.4612C685.531 92.4711 685.168 92.8506 685.178 93.2829C685.213 94.7959 685.248 96.3147 685.282 97.8277C685.292 98.26 685.672 98.6225 686.104 98.6126C687.617 98.5779 689.136 98.543 690.649 98.5084C690.882 98.503 691.061 98.4112 691.187 98.2798C691.196 98.2708 691.201 98.2648 691.21 98.2559C691.216 98.2499 691.224 98.2409 691.23 98.2349C691.358 98.1063 691.442 97.9232 691.434 97.6867ZM686.873 96.9876C686.851 96.0062 686.828 95.0306 686.806 94.0492C687.787 94.0267 688.763 94.0044 689.744 93.9819C689.767 94.9633 689.789 95.9388 689.812 96.9202C688.83 96.9427 687.855 96.9651 686.873 96.9876Z" fill="url(#paint24_linear_5_4537)"/>
</g>
</g>
<path d="M110.536 263.026C110.997 263.176 110.997 263.828 110.536 263.977L106.472 265.298C106.266 265.365 106.127 265.557 106.127 265.773L106.127 270.047C106.127 270.531 105.507 270.733 105.222 270.341L102.71 266.883C102.583 266.708 102.357 266.635 102.151 266.702L98.0869 268.022C97.6262 268.172 97.2432 267.645 97.5279 267.253L100.04 263.796C100.167 263.62 100.167 263.383 100.04 263.208L97.5279 259.75C97.2432 259.359 97.6262 258.831 98.0869 258.981L102.151 260.302C102.357 260.369 102.583 260.295 102.71 260.12L105.222 256.663C105.507 256.271 106.127 256.472 106.127 256.957L106.127 261.23C106.127 261.447 106.266 261.639 106.472 261.706L110.536 263.026Z" fill="#B5B5B5"/>
<path d="M23.3581 78.905C23.0506 78.6735 23.109 78.1959 23.4633 78.0454L56.1117 64.1683C56.4659 64.0177 56.8503 64.3071 56.8036 64.6891L52.4973 99.9021C52.4505 100.284 52.0077 100.472 51.7002 100.241L23.3581 78.905Z" fill="#FFCC4A"/>
<circle cx="209.951" cy="65.9531" r="14.9511" transform="rotate(90 209.951 65.9531)" fill="#4EAF4E"/>
<defs>
<linearGradient id="paint0_linear_5_4537" x1="764.023" y1="-426.524" x2="780.522" y2="114.595" gradientUnits="userSpaceOnUse">
<stop stop-color="#BE965D"/>
<stop offset="0.2784" stop-color="#976F40"/>
<stop offset="0.4259" stop-color="#C99B61"/>
<stop offset="0.5584" stop-color="#F0BE7B"/>
<stop offset="0.6275" stop-color="#FFCB85"/>
<stop offset="0.7085" stop-color="#EEBC79"/>
<stop offset="0.8693" stop-color="#C0935B"/>
<stop offset="1" stop-color="#976F40"/>
</linearGradient>
<linearGradient id="paint1_linear_5_4537" x1="741.309" y1="-425.832" x2="757.808" y2="115.288" gradientUnits="userSpaceOnUse">
<stop stop-color="#BE965D"/>
<stop offset="0.2784" stop-color="#976F40"/>
<stop offset="0.4259" stop-color="#C99B61"/>
<stop offset="0.5584" stop-color="#F0BE7B"/>
<stop offset="0.6275" stop-color="#FFCB85"/>
<stop offset="0.7085" stop-color="#EEBC79"/>
<stop offset="0.8693" stop-color="#C0935B"/>
<stop offset="1" stop-color="#976F40"/>
</linearGradient>
<linearGradient id="paint2_linear_5_4537" x1="718.597" y1="-425.138" x2="735.096" y2="115.981" gradientUnits="userSpaceOnUse">
<stop stop-color="#BE965D"/>
<stop offset="0.2784" stop-color="#976F40"/>
<stop offset="0.4259" stop-color="#C99B61"/>
<stop offset="0.5584" stop-color="#F0BE7B"/>
<stop offset="0.6275" stop-color="#FFCB85"/>
<stop offset="0.7085" stop-color="#EEBC79"/>
<stop offset="0.8693" stop-color="#C0935B"/>
<stop offset="1" stop-color="#976F40"/>
</linearGradient>
<linearGradient id="paint3_linear_5_4537" x1="741.139" y1="-425.826" x2="757.638" y2="115.293" gradientUnits="userSpaceOnUse">
<stop stop-color="#BE965D"/>
<stop offset="0.2784" stop-color="#976F40"/>
<stop offset="0.4259" stop-color="#C99B61"/>
<stop offset="0.5584" stop-color="#F0BE7B"/>
<stop offset="0.6275" stop-color="#FFCB85"/>
<stop offset="0.7085" stop-color="#EEBC79"/>
<stop offset="0.8693" stop-color="#C0935B"/>
<stop offset="1" stop-color="#976F40"/>
</linearGradient>
<linearGradient id="paint4_linear_5_4537" x1="695.883" y1="-424.448" x2="712.381" y2="116.673" gradientUnits="userSpaceOnUse">
<stop stop-color="#BE965D"/>
<stop offset="0.2784" stop-color="#976F40"/>
<stop offset="0.4259" stop-color="#C99B61"/>
<stop offset="0.5584" stop-color="#F0BE7B"/>
<stop offset="0.6275" stop-color="#FFCB85"/>
<stop offset="0.7085" stop-color="#EEBC79"/>
<stop offset="0.8693" stop-color="#C0935B"/>
<stop offset="1" stop-color="#976F40"/>
</linearGradient>
<linearGradient id="paint5_linear_5_4537" x1="718.425" y1="-425.135" x2="734.924" y2="115.985" gradientUnits="userSpaceOnUse">
<stop stop-color="#BE965D"/>
<stop offset="0.2784" stop-color="#976F40"/>
<stop offset="0.4259" stop-color="#C99B61"/>
<stop offset="0.5584" stop-color="#F0BE7B"/>
<stop offset="0.6275" stop-color="#FFCB85"/>
<stop offset="0.7085" stop-color="#EEBC79"/>
<stop offset="0.8693" stop-color="#C0935B"/>
<stop offset="1" stop-color="#976F40"/>
</linearGradient>
<linearGradient id="paint6_linear_5_4537" x1="673.172" y1="-423.754" x2="689.671" y2="117.365" gradientUnits="userSpaceOnUse">
<stop stop-color="#BE965D"/>
<stop offset="0.2784" stop-color="#976F40"/>
<stop offset="0.4259" stop-color="#C99B61"/>
<stop offset="0.5584" stop-color="#F0BE7B"/>
<stop offset="0.6275" stop-color="#FFCB85"/>
<stop offset="0.7085" stop-color="#EEBC79"/>
<stop offset="0.8693" stop-color="#C0935B"/>
<stop offset="1" stop-color="#976F40"/>
</linearGradient>
<linearGradient id="paint7_linear_5_4537" x1="695.713" y1="-424.44" x2="712.212" y2="116.679" gradientUnits="userSpaceOnUse">
<stop stop-color="#BE965D"/>
<stop offset="0.2784" stop-color="#976F40"/>
<stop offset="0.4259" stop-color="#C99B61"/>
<stop offset="0.5584" stop-color="#F0BE7B"/>
<stop offset="0.6275" stop-color="#FFCB85"/>
<stop offset="0.7085" stop-color="#EEBC79"/>
<stop offset="0.8693" stop-color="#C0935B"/>
<stop offset="1" stop-color="#976F40"/>
</linearGradient>
<linearGradient id="paint8_linear_5_4537" x1="718.254" y1="-425.129" x2="734.753" y2="115.99" gradientUnits="userSpaceOnUse">
<stop stop-color="#BE965D"/>
<stop offset="0.2784" stop-color="#976F40"/>
<stop offset="0.4259" stop-color="#C99B61"/>
<stop offset="0.5584" stop-color="#F0BE7B"/>
<stop offset="0.6275" stop-color="#FFCB85"/>
<stop offset="0.7085" stop-color="#EEBC79"/>
<stop offset="0.8693" stop-color="#C0935B"/>
<stop offset="1" stop-color="#976F40"/>
</linearGradient>
<linearGradient id="paint9_linear_5_4537" x1="650.457" y1="-423.06" x2="666.956" y2="118.06" gradientUnits="userSpaceOnUse">
<stop stop-color="#BE965D"/>
<stop offset="0.2784" stop-color="#976F40"/>
<stop offset="0.4259" stop-color="#C99B61"/>
<stop offset="0.5584" stop-color="#F0BE7B"/>
<stop offset="0.6275" stop-color="#FFCB85"/>
<stop offset="0.7085" stop-color="#EEBC79"/>
<stop offset="0.8693" stop-color="#C0935B"/>
<stop offset="1" stop-color="#976F40"/>
</linearGradient>
<linearGradient id="paint10_linear_5_4537" x1="672.997" y1="-423.75" x2="689.495" y2="117.37" gradientUnits="userSpaceOnUse">
<stop stop-color="#BE965D"/>
<stop offset="0.2784" stop-color="#976F40"/>
<stop offset="0.4259" stop-color="#C99B61"/>
<stop offset="0.5584" stop-color="#F0BE7B"/>
<stop offset="0.6275" stop-color="#FFCB85"/>
<stop offset="0.7085" stop-color="#EEBC79"/>
<stop offset="0.8693" stop-color="#C0935B"/>
<stop offset="1" stop-color="#976F40"/>
</linearGradient>
<linearGradient id="paint11_linear_5_4537" x1="695.539" y1="-424.437" x2="712.038" y2="116.683" gradientUnits="userSpaceOnUse">
<stop stop-color="#BE965D"/>
<stop offset="0.2784" stop-color="#976F40"/>
<stop offset="0.4259" stop-color="#C99B61"/>
<stop offset="0.5584" stop-color="#F0BE7B"/>
<stop offset="0.6275" stop-color="#FFCB85"/>
<stop offset="0.7085" stop-color="#EEBC79"/>
<stop offset="0.8693" stop-color="#C0935B"/>
<stop offset="1" stop-color="#976F40"/>
</linearGradient>
<linearGradient id="paint12_linear_5_4537" x1="627.743" y1="-422.369" x2="644.242" y2="118.751" gradientUnits="userSpaceOnUse">
<stop stop-color="#BE965D"/>
<stop offset="0.2784" stop-color="#976F40"/>
<stop offset="0.4259" stop-color="#C99B61"/>
<stop offset="0.5584" stop-color="#F0BE7B"/>
<stop offset="0.6275" stop-color="#FFCB85"/>
<stop offset="0.7085" stop-color="#EEBC79"/>
<stop offset="0.8693" stop-color="#C0935B"/>
<stop offset="1" stop-color="#976F40"/>
</linearGradient>
<linearGradient id="paint13_linear_5_4537" x1="650.286" y1="-423.055" x2="666.785" y2="118.065" gradientUnits="userSpaceOnUse">
<stop stop-color="#BE965D"/>
<stop offset="0.2784" stop-color="#976F40"/>
<stop offset="0.4259" stop-color="#C99B61"/>
<stop offset="0.5584" stop-color="#F0BE7B"/>
<stop offset="0.6275" stop-color="#FFCB85"/>
<stop offset="0.7085" stop-color="#EEBC79"/>
<stop offset="0.8693" stop-color="#C0935B"/>
<stop offset="1" stop-color="#976F40"/>
</linearGradient>
<linearGradient id="paint14_linear_5_4537" x1="672.827" y1="-423.743" x2="689.326" y2="117.378" gradientUnits="userSpaceOnUse">
<stop stop-color="#BE965D"/>
<stop offset="0.2784" stop-color="#976F40"/>
<stop offset="0.4259" stop-color="#C99B61"/>
<stop offset="0.5584" stop-color="#F0BE7B"/>
<stop offset="0.6275" stop-color="#FFCB85"/>
<stop offset="0.7085" stop-color="#EEBC79"/>
<stop offset="0.8693" stop-color="#C0935B"/>
<stop offset="1" stop-color="#976F40"/>
</linearGradient>
<linearGradient id="paint15_linear_5_4537" x1="695.368" y1="-424.432" x2="711.867" y2="116.689" gradientUnits="userSpaceOnUse">
<stop stop-color="#BE965D"/>
<stop offset="0.2784" stop-color="#976F40"/>
<stop offset="0.4259" stop-color="#C99B61"/>
<stop offset="0.5584" stop-color="#F0BE7B"/>
<stop offset="0.6275" stop-color="#FFCB85"/>
<stop offset="0.7085" stop-color="#EEBC79"/>
<stop offset="0.8693" stop-color="#C0935B"/>
<stop offset="1" stop-color="#976F40"/>
</linearGradient>
<linearGradient id="paint16_linear_5_4537" x1="605.03" y1="-421.678" x2="621.529" y2="119.444" gradientUnits="userSpaceOnUse">
<stop stop-color="#BE965D"/>
<stop offset="0.2784" stop-color="#976F40"/>
<stop offset="0.4259" stop-color="#C99B61"/>
<stop offset="0.5584" stop-color="#F0BE7B"/>
<stop offset="0.6275" stop-color="#FFCB85"/>
<stop offset="0.7085" stop-color="#EEBC79"/>
<stop offset="0.8693" stop-color="#C0935B"/>
<stop offset="1" stop-color="#976F40"/>
</linearGradient>
<linearGradient id="paint17_linear_5_4537" x1="627.572" y1="-422.364" x2="644.071" y2="118.757" gradientUnits="userSpaceOnUse">
<stop stop-color="#BE965D"/>
<stop offset="0.2784" stop-color="#976F40"/>
<stop offset="0.4259" stop-color="#C99B61"/>
<stop offset="0.5584" stop-color="#F0BE7B"/>
<stop offset="0.6275" stop-color="#FFCB85"/>
<stop offset="0.7085" stop-color="#EEBC79"/>
<stop offset="0.8693" stop-color="#C0935B"/>
<stop offset="1" stop-color="#976F40"/>
</linearGradient>
<linearGradient id="paint18_linear_5_4537" x1="650.113" y1="-423.052" x2="666.611" y2="118.069" gradientUnits="userSpaceOnUse">
<stop stop-color="#BE965D"/>
<stop offset="0.2784" stop-color="#976F40"/>
<stop offset="0.4259" stop-color="#C99B61"/>
<stop offset="0.5584" stop-color="#F0BE7B"/>
<stop offset="0.6275" stop-color="#FFCB85"/>
<stop offset="0.7085" stop-color="#EEBC79"/>
<stop offset="0.8693" stop-color="#C0935B"/>
<stop offset="1" stop-color="#976F40"/>
</linearGradient>
<linearGradient id="paint19_linear_5_4537" x1="672.655" y1="-423.739" x2="689.154" y2="117.381" gradientUnits="userSpaceOnUse">
<stop stop-color="#BE965D"/>
<stop offset="0.2784" stop-color="#976F40"/>
<stop offset="0.4259" stop-color="#C99B61"/>
<stop offset="0.5584" stop-color="#F0BE7B"/>
<stop offset="0.6275" stop-color="#FFCB85"/>
<stop offset="0.7085" stop-color="#EEBC79"/>
<stop offset="0.8693" stop-color="#C0935B"/>
<stop offset="1" stop-color="#976F40"/>
</linearGradient>
<linearGradient id="paint20_linear_5_4537" x1="582.317" y1="-420.983" x2="598.816" y2="120.137" gradientUnits="userSpaceOnUse">
<stop stop-color="#BE965D"/>
<stop offset="0.2784" stop-color="#976F40"/>
<stop offset="0.4259" stop-color="#C99B61"/>
<stop offset="0.5584" stop-color="#F0BE7B"/>
<stop offset="0.6275" stop-color="#FFCB85"/>
<stop offset="0.7085" stop-color="#EEBC79"/>
<stop offset="0.8693" stop-color="#C0935B"/>
<stop offset="1" stop-color="#976F40"/>
</linearGradient>
<linearGradient id="paint21_linear_5_4537" x1="604.86" y1="-421.671" x2="621.359" y2="119.45" gradientUnits="userSpaceOnUse">
<stop stop-color="#BE965D"/>
<stop offset="0.2784" stop-color="#976F40"/>
<stop offset="0.4259" stop-color="#C99B61"/>
<stop offset="0.5584" stop-color="#F0BE7B"/>
<stop offset="0.6275" stop-color="#FFCB85"/>
<stop offset="0.7085" stop-color="#EEBC79"/>
<stop offset="0.8693" stop-color="#C0935B"/>
<stop offset="1" stop-color="#976F40"/>
</linearGradient>
<linearGradient id="paint22_linear_5_4537" x1="627.399" y1="-422.358" x2="643.898" y2="118.763" gradientUnits="userSpaceOnUse">
<stop stop-color="#BE965D"/>
<stop offset="0.2784" stop-color="#976F40"/>
<stop offset="0.4259" stop-color="#C99B61"/>
<stop offset="0.5584" stop-color="#F0BE7B"/>
<stop offset="0.6275" stop-color="#FFCB85"/>
<stop offset="0.7085" stop-color="#EEBC79"/>
<stop offset="0.8693" stop-color="#C0935B"/>
<stop offset="1" stop-color="#976F40"/>
</linearGradient>
<linearGradient id="paint23_linear_5_4537" x1="649.942" y1="-423.046" x2="666.441" y2="118.075" gradientUnits="userSpaceOnUse">
<stop stop-color="#BE965D"/>
<stop offset="0.2784" stop-color="#976F40"/>
<stop offset="0.4259" stop-color="#C99B61"/>
<stop offset="0.5584" stop-color="#F0BE7B"/>
<stop offset="0.6275" stop-color="#FFCB85"/>
<stop offset="0.7085" stop-color="#EEBC79"/>
<stop offset="0.8693" stop-color="#C0935B"/>
<stop offset="1" stop-color="#976F40"/>
</linearGradient>
<linearGradient id="paint24_linear_5_4537" x1="672.484" y1="-423.734" x2="688.982" y2="117.387" gradientUnits="userSpaceOnUse">
<stop stop-color="#BE965D"/>
<stop offset="0.2784" stop-color="#976F40"/>
<stop offset="0.4259" stop-color="#C99B61"/>
<stop offset="0.5584" stop-color="#F0BE7B"/>
<stop offset="0.6275" stop-color="#FFCB85"/>
<stop offset="0.7085" stop-color="#EEBC79"/>
<stop offset="0.8693" stop-color="#C0935B"/>
<stop offset="1" stop-color="#976F40"/>
</linearGradient>
</defs>
</svg>
